<?xml version="1.0" standalone="no"?>
<!DOCTYPE svg PUBLIC "-//W3C//DTD SVG 20010904//EN"
 "http://www.w3.org/TR/2001/REC-SVG-20010904/DTD/svg10.dtd">
<svg version="1.0" xmlns="http://www.w3.org/2000/svg"
 width="500.000000pt" height="500.000000pt" viewBox="0 0 500.000000 500.000000"
 preserveAspectRatio="xMidYMid meet">

<g transform="translate(0.000000,500.000000) scale(0.100000,-0.100000)"
fill="#000000" stroke="none">
<path d="M2058 3790 c-162 -40 -671 -265 -823 -364 -255 -166 -357 -378 -340
-706 18 -352 88 -763 223 -1305 l67 -270 6 810 c4 595 8 822 17 854 55 196
210 337 493 449 41 17 165 55 275 86 110 30 221 64 246 75 196 84 214 317 29
379 -47 16 -103 14 -193 -8z"/>
<path d="M2705 3798 c-51 -18 -86 -49 -106 -92 -50 -110 9 -231 140 -288 25
-11 136 -44 245 -75 110 -30 234 -68 275 -85 285 -113 436 -251 493 -452 8
-29 14 -280 17 -851 l6 -810 72 290 c131 528 199 925 218 1280 15 262 -43 439
-192 592 -90 91 -205 162 -446 273 -434 200 -617 255 -722 218z"/>
</g>
</svg>
